<?xml version="1.0" standalone="no"?>
<!DOCTYPE svg PUBLIC "-//W3C//DTD SVG 20010904//EN"
 "http://www.w3.org/TR/2001/REC-SVG-20010904/DTD/svg10.dtd">
<svg version="1.0" xmlns="http://www.w3.org/2000/svg"
 width="700.000000pt" height="700.000000pt" viewBox="0 0 700.000000 700.000000"
 preserveAspectRatio="xMidYMid meet">
<metadata>
Created by potrace 1.14, written by Peter Selinger 2001-2017
</metadata>
<g transform="translate(0.000000,700.000000) scale(0.100000,-0.100000)"
fill="#000000" stroke="none">
<path d="M833 6978 c-55 -61 -56 -65 -55 -439 l0 -348 -302 -3 -301 -3 -51
-27 c-27 -14 -67 -45 -87 -67 l-37 -41 0 -2533 c0 -2417 1 -2535 18 -2555 10
-11 38 -31 62 -44 l45 -23 2870 0 2870 0 47 23 c60 30 112 89 148 167 21 46
193 610 305 1005 7 25 45 153 84 285 40 132 73 247 76 255 7 27 102 352 135
460 17 58 46 157 65 220 18 63 77 264 130 445 57 192 98 347 97 371 0 66 -39
126 -102 160 -33 18 -68 19 -600 20 -311 1 -567 3 -570 3 -3 1 -5 193 -5 429
0 487 0 486 -83 574 -81 86 -100 91 -382 94 -135 2 -257 3 -271 4 l-26 0 0
245 c0 135 -3 249 -7 253 -3 4 -250 251 -548 550 l-542 542 -1481 0 -1482 0
-20 -22z"/>
</g>
</svg>
